<svg width="274" height="106" viewBox="0 0 274 106" fill="none" xmlns="http://www.w3.org/2000/svg">
<g filter="url(#filter0_d_1_18)">
<path d="M15 13C15 9.13401 18.134 6 22 6H81.1943C85.0603 6 88.1943 9.13401 88.1943 13V65C88.1943 68.866 85.0603 72 81.1943 72H49.5372C46.5431 72 43.8991 73.9528 43.0186 76.8145C41.0434 83.2338 31.9566 83.2338 29.9814 76.8145C29.1009 73.9528 26.4569 72 23.4628 72H22C18.134 72 15 68.866 15 65V13Z" fill="black"/>
<path d="M131.836 30.6H136.192V46H131.836V30.6ZM125.896 46H121.54V30.6H125.896V46ZM132.144 39.994H125.588V36.386H132.144V39.994ZM138.077 46L144.875 30.6H149.165L155.985 46H151.453L146.129 32.734H147.845L142.521 46H138.077ZM141.795 43.008L142.917 39.796H150.441L151.563 43.008H141.795ZM157.88 46V30.6H164.92C166.328 30.6 167.538 30.8273 168.55 31.282C169.576 31.7367 170.368 32.3967 170.926 33.262C171.483 34.1127 171.762 35.1247 171.762 36.298C171.762 37.4567 171.483 38.4613 170.926 39.312C170.368 40.1627 169.576 40.8227 168.55 41.292C167.538 41.7467 166.328 41.974 164.92 41.974H160.3L162.236 40.082V46H157.88ZM162.236 40.544L160.3 38.542H164.656C165.565 38.542 166.24 38.344 166.68 37.948C167.134 37.552 167.362 37.002 167.362 36.298C167.362 35.5793 167.134 35.022 166.68 34.626C166.24 34.23 165.565 34.032 164.656 34.032H160.3L162.236 32.03V40.544ZM174.545 46V30.6H181.585C182.993 30.6 184.203 30.8273 185.215 31.282C186.242 31.7367 187.034 32.3967 187.591 33.262C188.149 34.1127 188.427 35.1247 188.427 36.298C188.427 37.4567 188.149 38.4613 187.591 39.312C187.034 40.1627 186.242 40.8227 185.215 41.292C184.203 41.7467 182.993 41.974 181.585 41.974H176.965L178.901 40.082V46H174.545ZM178.901 40.544L176.965 38.542H181.321C182.231 38.542 182.905 38.344 183.345 37.948C183.8 37.552 184.027 37.002 184.027 36.298C184.027 35.5793 183.8 35.022 183.345 34.626C182.905 34.23 182.231 34.032 181.321 34.032H176.965L178.901 32.03V40.544ZM195.105 46V39.488L196.117 42.106L189.231 30.6H193.829L198.801 38.938H196.139L201.133 30.6H205.357L198.493 42.106L199.461 39.488V46H195.105ZM214.187 46V30.6H221.227C222.635 30.6 223.845 30.8273 224.857 31.282C225.884 31.7367 226.676 32.3967 227.234 33.262C227.791 34.1127 228.069 35.1247 228.069 36.298C228.069 37.4567 227.791 38.4613 227.234 39.312C226.676 40.1627 225.884 40.8227 224.857 41.292C223.845 41.7467 222.635 41.974 221.227 41.974H216.607L218.543 40.082V46H214.187ZM218.543 40.544L216.607 38.542H220.963C221.873 38.542 222.547 38.344 222.987 37.948C223.442 37.552 223.67 37.002 223.67 36.298C223.67 35.5793 223.442 35.022 222.987 34.626C222.547 34.23 221.873 34.032 220.963 34.032H216.607L218.543 32.03V40.544ZM234.857 36.562H242.007V39.818H234.857V36.562ZM235.165 42.634H243.217V46H230.853V30.6H242.931V33.966H235.165V42.634ZM249.573 46V34.054H244.843V30.6H258.637V34.054H253.929V46H249.573Z" fill="black"/>
</g>
<defs>
<filter id="filter0_d_1_18" x="0" y="0" width="273.637" height="105.629" filterUnits="userSpaceOnUse" color-interpolation-filters="sRGB">
<feFlood flood-opacity="0" result="BackgroundImageFix"/>
<feColorMatrix in="SourceAlpha" type="matrix" values="0 0 0 0 0 0 0 0 0 0 0 0 0 0 0 0 0 0 127 0" result="hardAlpha"/>
<feOffset dy="9"/>
<feGaussianBlur stdDeviation="7.5"/>
<feComposite in2="hardAlpha" operator="out"/>
<feColorMatrix type="matrix" values="0 0 0 0 0 0 0 0 0 0 0 0 0 0 0 0 0 0 0.45 0"/>
<feBlend mode="normal" in2="BackgroundImageFix" result="effect1_dropShadow_1_18"/>
<feBlend mode="normal" in="SourceGraphic" in2="effect1_dropShadow_1_18" result="shape"/>
</filter>
</defs>
</svg>
